<?xml version="1.0" encoding="utf-8"?>
<!-- Generator: Adobe Illustrator 19.2.1, SVG Export Plug-In . SVG Version: 6.00 Build 0)  -->
<svg version="1.1" id="Layer_1" xmlns="http://www.w3.org/2000/svg" xmlns:xlink="http://www.w3.org/1999/xlink" x="0px" y="0px"
	 viewBox="0 0 792 612" style="enable-background:new 0 0 792 612;" xml:space="preserve">
<style type="text/css">
	.st0{stroke:#000000;stroke-width:5;stroke-miterlimit:10;}
	.st1{fill:none;stroke:#000000;stroke-width:5;stroke-miterlimit:10;}
	.st2{stroke:#000000;}
</style>
<g>
	<line class="st0" x1="289.5" y1="298.2" x2="502.5" y2="298.2"/>
	<line class="st1" x1="318.9" y1="403.9" x2="318.9" y2="298.2"/>
	<line class="st1" x1="473.7" y1="406.6" x2="473.7" y2="300.8"/>
	<g>
		<path class="st2" d="M418.3,282.9v-58.3c0-4.4,0.1-8.8,0.1-8.8h-0.2c0,0-1.7,4-3.6,7.6l-17.2,33.9h-1.7l-17-33.9
			c-1.8-3.6-3.6-7.6-3.6-7.6h-0.2c0,0,0.1,4.7,0.1,8.8v58.3h-4.3v-75.8h4.3l17.7,35c1.7,3.5,3.8,7.9,3.8,7.9h0.2c0,0,2.1-4.4,3.9-8
			l17.8-34.9h4.3v75.8H418.3z"/>
	</g>
	<g>
		<path class="st2" d="M418.5,380c-3.6,10.6-10.3,17.3-20.9,17.3c-16.8,0-23.8-16.7-23.8-39c0-22.3,7-39,23.8-39
			c10.9,0,17.8,7.1,21.2,18.3l-4,1.3c-2.9-9.7-8.4-15.6-17.2-15.6c-13.6,0-19.5,14.4-19.5,35c0,20.6,5.8,35,19.5,35
			c8.4,0,14-5.5,16.9-14.5L418.5,380z"/>
	</g>
</g>
</svg>
